<svg xmlns="http://www.w3.org/2000/svg" width="960" height="540" viewBox="0 0 960 540">
    
    <defs>
        <pattern id="grid" width="24" height="24" patternUnits="userSpaceOnUse">
            <path d="M24 0H0V24" fill="none" stroke="#B9BCB9" stroke-width="1" opacity="0.22"/>
        </pattern>
        <pattern id="micro" width="8" height="8" patternUnits="userSpaceOnUse">
            <circle cx="1" cy="1" r="0.7" fill="#F2EBDD" opacity="0.14"/>
        </pattern>
        <linearGradient id="paperFade" x1="0" y1="0" x2="1" y2="1">
            <stop offset="0" stop-color="#FAF7EF"/>
            <stop offset="1" stop-color="#DDD4C4"/>
        </linearGradient>
        <linearGradient id="roadFade" x1="0" y1="0" x2="1" y2="1">
            <stop offset="0" stop-color="#3D4043"/>
            <stop offset="1" stop-color="#191A1B"/>
        </linearGradient>
        <filter id="softShadow" x="-30%" y="-30%" width="160%" height="160%">
            <feDropShadow dx="0" dy="14" stdDeviation="18" flood-color="#000000" flood-opacity="0.22"/>
        </filter>
    </defs>
    <rect width="960" height="540" fill="#292B2E"/>
    <rect width="960" height="540" fill="url(#micro)" opacity="0.38"/>
    <rect x="0" y="0" width="12" height="540" fill="#D94A3A"/>
    <g font-family="Noto Sans SC, Source Han Sans SC, PingFang SC, sans-serif">
        <text x="48" y="50" font-size="17" font-weight="700" letter-spacing="2" fill="#D94A3A">TWO SPEEDS · 03</text>
        <text x="48" y="93" font-size="34" font-weight="700" fill="#FAF7EF">第一次执导</text>
        <text x="48" y="123" font-size="16" font-weight="500" fill="#B9BCB9">把文字重新组织成镜头</text>
        <text x="912" y="50" text-anchor="end" font-size="14" font-weight="700" letter-spacing="1" fill="#FAF7EF">P-MOOD</text>
        <line x1="48" y1="144" x2="912" y2="144" stroke="#484B4E" stroke-width="1"/>
    </g>
    
            <g transform="translate(0 146)">
                <path d="M-40 355C245 252 482 276 1020 122" fill="none" stroke="#101112" stroke-width="108"/>
                <path d="M-40 355C245 252 482 276 1020 122" fill="none" stroke="#D94A3A" stroke-width="3"/>
                <g transform="translate(170 244) rotate(-7)" filter="url(#softShadow)">
                    <rect x="-88" y="-52" width="176" height="104" rx="4" fill="#F2EBDD"/>
                    <rect x="-72" y="-35" width="104" height="54" fill="#B9BCB9"/>
                    <path d="M-62 -2H20" stroke="#F2EBDD" stroke-width="3" opacity="0.65"/>
                    <text x="-70" y="40" font-family="Noto Sans SC, Source Han Sans SC, PingFang SC, sans-serif" font-size="10" font-weight="700" fill="#151617">FRAME 01</text>
                    <rect x="44" y="-35" width="7" height="70" fill="#D94A3A"/>
                </g><g transform="translate(394 207) rotate(-4)" filter="url(#softShadow)">
                    <rect x="-88" y="-52" width="176" height="104" rx="4" fill="#F2EBDD"/>
                    <rect x="-72" y="-35" width="104" height="54" fill="#484B4E"/>
                    <path d="M-62 4H20" stroke="#F2EBDD" stroke-width="3" opacity="0.65"/>
                    <text x="-70" y="40" font-family="Noto Sans SC, Source Han Sans SC, PingFang SC, sans-serif" font-size="10" font-weight="700" fill="#151617">FRAME 02</text>
                    <rect x="44" y="-35" width="7" height="70" fill="#D94A3A"/>
                </g><g transform="translate(616 154) rotate(1)" filter="url(#softShadow)">
                    <rect x="-88" y="-52" width="176" height="104" rx="4" fill="#F2EBDD"/>
                    <rect x="-72" y="-35" width="104" height="54" fill="#B9BCB9"/>
                    <path d="M-62 -2H20" stroke="#F2EBDD" stroke-width="3" opacity="0.65"/>
                    <text x="-70" y="40" font-family="Noto Sans SC, Source Han Sans SC, PingFang SC, sans-serif" font-size="10" font-weight="700" fill="#151617">FRAME 03</text>
                    <rect x="44" y="-35" width="7" height="70" fill="#D94A3A"/>
                </g><g transform="translate(812 101) rotate(5)" filter="url(#softShadow)">
                    <rect x="-88" y="-52" width="176" height="104" rx="4" fill="#F2EBDD"/>
                    <rect x="-72" y="-35" width="104" height="54" fill="#484B4E"/>
                    <path d="M-62 4H20" stroke="#F2EBDD" stroke-width="3" opacity="0.65"/>
                    <text x="-70" y="40" font-family="Noto Sans SC, Source Han Sans SC, PingFang SC, sans-serif" font-size="10" font-weight="700" fill="#151617">FRAME 04</text>
                    <rect x="44" y="-35" width="7" height="70" fill="#D94A3A"/>
                </g>
                <g font-family="Noto Sans SC, Source Han Sans SC, PingFang SC, sans-serif">
                    <text x="56" y="61" font-size="13" font-weight="700" letter-spacing="2" fill="#B9BCB9">WORDS BECOME SPATIAL</text>
                    <text x="56" y="99" font-size="21" font-weight="700" fill="#FAF7EF">分镜悬在一条不存在的公路上。</text>
                    <text x="56" y="127" font-size="15" fill="#B9BCB9">这是从段落到镜头的抽象过渡，不是影片场景。</text>
                </g>
            </g>
    <g transform="translate(48 489)" font-family="Noto Sans SC, Source Han Sans SC, PingFang SC, sans-serif">
        <rect width="360" height="30" rx="15" fill="#F2EBDD" opacity="0.12"/>
        <circle cx="17" cy="15" r="4" fill="#D99B3F"/>
        <text x="31" y="20" font-size="12" font-weight="700" fill="#FAF7EF">艺术演绎 · 非真实现场</text>
        <text x="864" y="20" text-anchor="end" font-size="11" font-weight="500" fill="#B9BCB9">非官方原创策展概念</text>
    </g>
</svg>
