<svg xmlns="http://www.w3.org/2000/svg" width="960" height="540" viewBox="0 0 960 540">
    
    <defs>
        <pattern id="grid" width="24" height="24" patternUnits="userSpaceOnUse">
            <path d="M24 0H0V24" fill="none" stroke="#B9BCB9" stroke-width="1" opacity="0.22"/>
        </pattern>
        <pattern id="micro" width="8" height="8" patternUnits="userSpaceOnUse">
            <circle cx="1" cy="1" r="0.7" fill="#F2EBDD" opacity="0.14"/>
        </pattern>
        <linearGradient id="paperFade" x1="0" y1="0" x2="1" y2="1">
            <stop offset="0" stop-color="#FAF7EF"/>
            <stop offset="1" stop-color="#DDD4C4"/>
        </linearGradient>
        <linearGradient id="roadFade" x1="0" y1="0" x2="1" y2="1">
            <stop offset="0" stop-color="#3D4043"/>
            <stop offset="1" stop-color="#191A1B"/>
        </linearGradient>
        <filter id="softShadow" x="-30%" y="-30%" width="160%" height="160%">
            <feDropShadow dx="0" dy="14" stdDeviation="18" flood-color="#000000" flood-opacity="0.22"/>
        </filter>
    </defs>
    <rect width="960" height="540" fill="#F2EBDD"/>
    <rect width="960" height="540" fill="url(#grid)" opacity="0.62"/>
    <rect x="0" y="0" width="12" height="540" fill="#D94A3A"/>
    <g font-family="Noto Sans SC, Source Han Sans SC, PingFang SC, sans-serif">
        <text x="48" y="50" font-size="17" font-weight="700" letter-spacing="2" fill="#D94A3A">TWO SPEEDS · 01</text>
        <text x="48" y="93" font-size="34" font-weight="700" fill="#151617">少年写作</text>
        <text x="48" y="123" font-size="16" font-weight="500" fill="#7F796F">公开声音如何诞生</text>
        <text x="912" y="50" text-anchor="end" font-size="14" font-weight="700" letter-spacing="1" fill="#151617">P-EXPLAIN</text>
        <line x1="48" y1="144" x2="912" y2="144" stroke="#B9BCB9" stroke-width="1"/>
    </g>
    
            <g transform="translate(54 188)" font-family="Noto Sans SC, Source Han Sans SC, PingFang SC, sans-serif">
                <g transform="translate(0 0)">
                        <rect width="142" height="174" rx="7" fill="#FAF7EF" stroke="#B9BCB9" stroke-width="1.5" filter="url(#softShadow)"/>
                        <text x="18" y="35" font-size="12" font-weight="700" fill="#D94A3A">01</text>
                        <text x="18" y="81" font-size="25" font-weight="700" fill="#151617">观察</text>
                        <line x1="18" y1="101" x2="124" y2="101" stroke="#DDD4C4"/>
                        <text x="18" y="130" font-size="13" font-weight="500" fill="#7F796F">现实材料</text>
                        <path d="M145 87H166M158 80L166 87L158 94" fill="none" stroke="#D94A3A" stroke-width="2"/>
                    </g><g transform="translate(172 0)">
                        <rect width="142" height="174" rx="7" fill="#FAF7EF" stroke="#B9BCB9" stroke-width="1.5" filter="url(#softShadow)"/>
                        <text x="18" y="35" font-size="12" font-weight="700" fill="#D94A3A">02</text>
                        <text x="18" y="81" font-size="25" font-weight="700" fill="#151617">句子</text>
                        <line x1="18" y1="101" x2="124" y2="101" stroke="#DDD4C4"/>
                        <text x="18" y="130" font-size="13" font-weight="500" fill="#7F796F">第一次选择</text>
                        <path d="M145 87H166M158 80L166 87L158 94" fill="none" stroke="#D94A3A" stroke-width="2"/>
                    </g><g transform="translate(344 0)">
                        <rect width="142" height="174" rx="7" fill="#FAF7EF" stroke="#B9BCB9" stroke-width="1.5" filter="url(#softShadow)"/>
                        <text x="18" y="35" font-size="12" font-weight="700" fill="#D94A3A">03</text>
                        <text x="18" y="81" font-size="25" font-weight="700" fill="#151617">段落</text>
                        <line x1="18" y1="101" x2="124" y2="101" stroke="#DDD4C4"/>
                        <text x="18" y="130" font-size="13" font-weight="500" fill="#7F796F">组织节奏</text>
                        <path d="M145 87H166M158 80L166 87L158 94" fill="none" stroke="#D94A3A" stroke-width="2"/>
                    </g><g transform="translate(516 0)">
                        <rect width="142" height="174" rx="7" fill="#FAF7EF" stroke="#B9BCB9" stroke-width="1.5" filter="url(#softShadow)"/>
                        <text x="18" y="35" font-size="12" font-weight="700" fill="#D94A3A">04</text>
                        <text x="18" y="81" font-size="25" font-weight="700" fill="#151617">回应</text>
                        <line x1="18" y1="101" x2="124" y2="101" stroke="#DDD4C4"/>
                        <text x="18" y="130" font-size="13" font-weight="500" fill="#7F796F">进入公共空间</text>
                        <path d="M145 87H166M158 80L166 87L158 94" fill="none" stroke="#D94A3A" stroke-width="2"/>
                    </g><g transform="translate(688 0)">
                        <rect width="142" height="174" rx="7" fill="#151617" stroke="#151617" stroke-width="1.5" filter="url(#softShadow)"/>
                        <text x="18" y="35" font-size="12" font-weight="700" fill="#D99B3F">05</text>
                        <text x="18" y="81" font-size="25" font-weight="700" fill="#FAF7EF">重写</text>
                        <line x1="18" y1="101" x2="124" y2="101" stroke="#484B4E"/>
                        <text x="18" y="130" font-size="13" font-weight="500" fill="#B9BCB9">把锋芒变准确</text>
                        
                    </g>
                <path d="M756 202C610 256 248 256 74 205" fill="none" stroke="#D94A3A" stroke-width="2" stroke-dasharray="8 8"/>
                <path d="M74 205L89 197L87 213Z" fill="#D94A3A"/>
                <text x="420" y="250" text-anchor="middle" font-size="13" font-weight="700" fill="#D94A3A">公开回应返回编辑台 · 循环而非直线</text>
            </g>
    <g transform="translate(48 489)" font-family="Noto Sans SC, Source Han Sans SC, PingFang SC, sans-serif">
        <rect width="360" height="30" rx="15" fill="#151617" opacity="0.07"/>
        <circle cx="17" cy="15" r="4" fill="#D94A3A"/>
        <text x="31" y="20" font-size="12" font-weight="700" fill="#151617">原创策展解释 · 非本人原话</text>
        <text x="864" y="20" text-anchor="end" font-size="11" font-weight="500" fill="#7F796F">非官方原创策展概念</text>
    </g>
</svg>
