<svg xmlns="http://www.w3.org/2000/svg" width="960" height="540" viewBox="0 0 960 540">
    
    <defs>
        <pattern id="grid" width="24" height="24" patternUnits="userSpaceOnUse">
            <path d="M24 0H0V24" fill="none" stroke="#B9BCB9" stroke-width="1" opacity="0.22"/>
        </pattern>
        <pattern id="micro" width="8" height="8" patternUnits="userSpaceOnUse">
            <circle cx="1" cy="1" r="0.7" fill="#F2EBDD" opacity="0.14"/>
        </pattern>
        <linearGradient id="paperFade" x1="0" y1="0" x2="1" y2="1">
            <stop offset="0" stop-color="#FAF7EF"/>
            <stop offset="1" stop-color="#DDD4C4"/>
        </linearGradient>
        <linearGradient id="roadFade" x1="0" y1="0" x2="1" y2="1">
            <stop offset="0" stop-color="#3D4043"/>
            <stop offset="1" stop-color="#191A1B"/>
        </linearGradient>
        <filter id="softShadow" x="-30%" y="-30%" width="160%" height="160%">
            <feDropShadow dx="0" dy="14" stdDeviation="18" flood-color="#000000" flood-opacity="0.22"/>
        </filter>
    </defs>
    <rect width="960" height="540" fill="#292B2E"/>
    <rect width="960" height="540" fill="url(#micro)" opacity="0.38"/>
    <rect x="0" y="0" width="12" height="540" fill="#D94A3A"/>
    <g font-family="Noto Sans SC, Source Han Sans SC, PingFang SC, sans-serif">
        <text x="48" y="50" font-size="17" font-weight="700" letter-spacing="2" fill="#D94A3A">TWO SPEEDS · 01</text>
        <text x="48" y="93" font-size="34" font-weight="700" fill="#FAF7EF">少年写作</text>
        <text x="48" y="123" font-size="16" font-weight="500" fill="#B9BCB9">公开声音如何诞生</text>
        <text x="912" y="50" text-anchor="end" font-size="14" font-weight="700" letter-spacing="1" fill="#FAF7EF">P-MOOD</text>
        <line x1="48" y1="144" x2="912" y2="144" stroke="#484B4E" stroke-width="1"/>
    </g>
    
            <g transform="translate(0 150)">
                <path d="M139 340L408 48L528 48L821 340Z" fill="#F2EBDD" filter="url(#softShadow)"/>
                <path d="M408 48L470 112L528 48" fill="#DDD4C4"/>
                <path d="M470 112C441 162 422 224 409 340" fill="none" stroke="#D94A3A" stroke-width="7" stroke-linecap="round"/>
                <path d="M470 112C525 172 561 241 579 340" fill="none" stroke="#B9BCB9" stroke-width="2" stroke-dasharray="12 13"/>
                <g fill="#151617" opacity="0.58">
                    <rect x="230" y="300" width="116" height="4"/><rect x="245" y="318" width="86" height="4"/>
                    <rect x="601" y="300" width="116" height="4"/><rect x="617" y="318" width="86" height="4"/>
                    <rect x="423" y="80" width="36" height="3"/><rect x="482" y="80" width="32" height="3"/>
                </g>
                <g font-family="Noto Sans SC, Source Han Sans SC, PingFang SC, sans-serif">
                    <text x="82" y="72" font-size="12" font-weight="700" letter-spacing="2" fill="#B9BCB9">PAGE / ROAD / HORIZON</text>
                    <text x="82" y="108" font-size="20" font-weight="700" fill="#FAF7EF">纸页没有变成真实公路。</text>
                    <text x="82" y="136" font-size="15" fill="#B9BCB9">这是“表达不断向前”的空间隐喻。</text>
                </g>
            </g>
    <g transform="translate(48 489)" font-family="Noto Sans SC, Source Han Sans SC, PingFang SC, sans-serif">
        <rect width="360" height="30" rx="15" fill="#F2EBDD" opacity="0.12"/>
        <circle cx="17" cy="15" r="4" fill="#D99B3F"/>
        <text x="31" y="20" font-size="12" font-weight="700" fill="#FAF7EF">艺术演绎 · 非真实现场</text>
        <text x="864" y="20" text-anchor="end" font-size="11" font-weight="500" fill="#B9BCB9">非官方原创策展概念</text>
    </g>
</svg>
