<svg xmlns="http://www.w3.org/2000/svg" width="960" height="540" viewBox="0 0 960 540">
    
    <defs>
        <pattern id="grid" width="24" height="24" patternUnits="userSpaceOnUse">
            <path d="M24 0H0V24" fill="none" stroke="#B9BCB9" stroke-width="1" opacity="0.22"/>
        </pattern>
        <pattern id="micro" width="8" height="8" patternUnits="userSpaceOnUse">
            <circle cx="1" cy="1" r="0.7" fill="#F2EBDD" opacity="0.14"/>
        </pattern>
        <linearGradient id="paperFade" x1="0" y1="0" x2="1" y2="1">
            <stop offset="0" stop-color="#FAF7EF"/>
            <stop offset="1" stop-color="#DDD4C4"/>
        </linearGradient>
        <linearGradient id="roadFade" x1="0" y1="0" x2="1" y2="1">
            <stop offset="0" stop-color="#3D4043"/>
            <stop offset="1" stop-color="#191A1B"/>
        </linearGradient>
        <filter id="softShadow" x="-30%" y="-30%" width="160%" height="160%">
            <feDropShadow dx="0" dy="14" stdDeviation="18" flood-color="#000000" flood-opacity="0.22"/>
        </filter>
    </defs>
    <rect width="960" height="540" fill="#F2EBDD"/>
    <rect width="960" height="540" fill="url(#grid)" opacity="0.62"/>
    <rect x="0" y="0" width="12" height="540" fill="#D94A3A"/>
    <g font-family="Noto Sans SC, Source Han Sans SC, PingFang SC, sans-serif">
        <text x="48" y="50" font-size="17" font-weight="700" letter-spacing="2" fill="#D94A3A">TWO SPEEDS · 04</text>
        <text x="48" y="93" font-size="34" font-weight="700" fill="#151617">赛车电影方法</text>
        <text x="48" y="123" font-size="16" font-weight="500" fill="#7F796F">两条职业线在新媒介汇合</text>
        <text x="912" y="50" text-anchor="end" font-size="14" font-weight="700" letter-spacing="1" fill="#151617">P-EXPLAIN</text>
        <line x1="48" y1="144" x2="912" y2="144" stroke="#B9BCB9" stroke-width="1"/>
    </g>
    
            <g transform="translate(48 170)" font-family="Noto Sans SC, Source Han Sans SC, PingFang SC, sans-serif">
                <g transform="translate(0 0)">
                    <text x="0" y="22" font-size="13" font-weight="700" fill="#7F796F">FOUR-LAYER EDITORIAL MODEL</text>
                    <g transform="translate(0 49)">
                        <rect width="462" height="50" rx="4" fill="#DDD4C4"/>
                        <text x="16" y="31" font-size="11" font-weight="700" fill="#D94A3A">01</text>
                        <text x="58" y="32" font-size="16" font-weight="700" fill="#151617">赛道几何</text>
                        <path d="M260 25H430" stroke="#151617" opacity="0.25" stroke-dasharray="5 6"/>
                    </g><g transform="translate(0 113)">
                        <rect width="462" height="50" rx="4" fill="#B9BCB9"/>
                        <text x="16" y="31" font-size="11" font-weight="700" fill="#D94A3A">02</text>
                        <text x="58" y="32" font-size="16" font-weight="700" fill="#151617">角色选择</text>
                        <path d="M260 25H430" stroke="#151617" opacity="0.25" stroke-dasharray="5 6"/>
                    </g><g transform="translate(0 177)">
                        <rect width="462" height="50" rx="4" fill="#484B4E"/>
                        <text x="16" y="31" font-size="11" font-weight="700" fill="#D99B3F">03</text>
                        <text x="58" y="32" font-size="16" font-weight="700" fill="#FAF7EF">摄影机路径</text>
                        <path d="M260 25H430" stroke="#FAF7EF" opacity="0.25" stroke-dasharray="5 6"/>
                    </g><g transform="translate(0 241)">
                        <rect width="462" height="50" rx="4" fill="#151617"/>
                        <text x="16" y="31" font-size="11" font-weight="700" fill="#D99B3F">04</text>
                        <text x="58" y="32" font-size="16" font-weight="700" fill="#FAF7EF">剪辑节奏</text>
                        <path d="M260 25H430" stroke="#FAF7EF" opacity="0.25" stroke-dasharray="5 6"/>
                    </g>
                </g>
                <g transform="translate(532 38)">
                    <path d="M36 204C41 85 91 39 169 45S306 104 281 188S157 264 82 213" fill="none" stroke="#B9BCB9" stroke-width="42"/>
                    <path d="M36 204C41 85 91 39 169 45S306 104 281 188S157 264 82 213" fill="none" stroke="#151617" stroke-width="2" stroke-dasharray="8 8"/>
                    <path d="M53 194C59 99 99 68 166 68S277 115 258 174S169 226 101 198" fill="none" stroke="#D94A3A" stroke-width="4"/>
                    <g fill="#151617">
                        <circle cx="53" cy="194" r="8"/><circle cx="166" cy="68" r="8"/><circle cx="258" cy="174" r="8"/><circle cx="101" cy="198" r="8"/>
                    </g>
                    <text x="160" y="144" text-anchor="middle" font-size="14" font-weight="700" fill="#151617">同一条线</text>
                    <text x="160" y="166" text-anchor="middle" font-size="12" fill="#7F796F">在四层里改变意义</text>
                </g>
            </g>
    <g transform="translate(48 489)" font-family="Noto Sans SC, Source Han Sans SC, PingFang SC, sans-serif">
        <rect width="360" height="30" rx="15" fill="#151617" opacity="0.07"/>
        <circle cx="17" cy="15" r="4" fill="#D94A3A"/>
        <text x="31" y="20" font-size="12" font-weight="700" fill="#151617">原创策展解释 · 非本人原话</text>
        <text x="864" y="20" text-anchor="end" font-size="11" font-weight="500" fill="#7F796F">非官方原创策展概念</text>
    </g>
</svg>
